<svg width="130" height="149" viewBox="0 0 130 149" fill="none" xmlns="http://www.w3.org/2000/svg">
<circle cx="66" cy="73" r="50" fill="url(#paint0_linear_168_318)"/>
<path fill-rule="evenodd" clip-rule="evenodd" d="M48.6661 67.961C48.6661 58.7787 55.9418 51.334 64.9161 51.334C73.8904 51.334 81.1661 58.7787 81.1661 67.961C81.174 70.2895 80.6966 72.5942 79.7643 74.728C78.8321 76.8618 77.4655 78.778 75.7516 80.3543C74.6466 81.3661 73.8254 82.118 73.2448 82.664C72.9506 82.9402 72.6617 83.2219 72.3781 83.509L72.3239 83.5675L72.3131 83.5805L72.3066 83.587C71.7931 84.237 71.6826 84.4016 71.6176 84.5533C71.5526 84.705 71.5028 84.9 71.3728 85.7233C71.3229 86.0483 71.3164 86.603 71.3164 88.1175V88.1825C71.3164 89.0686 71.3164 89.8335 71.2623 90.4596C71.2038 91.1227 71.0738 91.7813 70.7249 92.3988C70.3387 93.0859 69.7782 93.6591 69.0999 94.0606C68.4976 94.4181 67.8541 94.5503 67.2063 94.611C66.5931 94.6673 65.8456 94.6673 64.9789 94.6673H64.8533C63.9866 94.6673 63.2391 94.6673 62.6259 94.611C61.9759 94.5503 61.3346 94.416 60.7301 94.0606C60.0526 93.6588 59.4929 93.0857 59.1073 92.3988C58.7606 91.7813 58.6306 91.1248 58.5699 90.4596C58.5136 89.8313 58.5136 89.0686 58.5136 88.1825V88.1175C58.5136 86.603 58.5093 86.0483 58.4573 85.7233C58.3273 84.9 58.2818 84.705 58.2146 84.5533C58.1496 84.4016 58.0391 84.2348 57.5256 83.587L57.5191 83.5805L57.5083 83.5675C57.2074 83.2602 56.9004 82.959 56.5874 82.664C56.0068 82.118 55.1856 81.3661 54.0806 80.3521C52.367 78.7761 51.0005 76.8602 50.0683 74.7268C49.1361 72.5934 48.6585 70.2892 48.6661 67.961ZM68.3503 89.6276C68.3454 89.8142 68.3353 90.0006 68.3199 90.1866C68.2788 90.6416 68.2116 90.8063 68.1661 90.8886C68.0372 91.1172 67.8503 91.3077 67.6244 91.4411C67.5443 91.4888 67.3839 91.5581 66.9398 91.5993C66.4761 91.6426 65.8629 91.6426 64.9161 91.6426C63.9693 91.6426 63.3561 91.6426 62.8924 91.5993C62.4483 91.5581 62.2879 91.491 62.2078 91.4411C61.9819 91.3077 61.795 91.1172 61.6661 90.8886C61.6206 90.8063 61.5534 90.6416 61.5144 90.1866C61.4983 90.0007 61.4874 89.8143 61.4819 89.6276H68.3503ZM62.3118 76.5193C62.0954 76.1464 61.7398 75.8747 61.3231 75.7639C60.9064 75.6532 60.4628 75.7125 60.0899 75.9289C59.7169 76.1452 59.4452 76.5009 59.3345 76.9176C59.2237 77.3343 59.2831 77.7779 59.4994 78.1508C60.2643 79.4725 61.5274 80.4778 63.0354 80.9025V83.834C63.0354 84.265 63.2066 84.6783 63.5114 84.983C63.8161 85.2878 64.2295 85.459 64.6604 85.459C65.0914 85.459 65.5047 85.2878 65.8095 84.983C66.1142 84.6783 66.2854 84.265 66.2854 83.834V80.9025C67.776 80.4778 69.0432 79.4903 69.8193 78.1486C70.0233 77.7764 70.0736 77.3391 69.9594 76.9303C69.8452 76.5214 69.5756 76.1735 69.2081 75.9609C68.8407 75.7484 68.4047 75.688 67.9933 75.7927C67.582 75.8975 67.2279 76.1591 67.0069 76.5215C66.77 76.9347 66.4281 77.2781 66.0159 77.5169C65.6037 77.7557 65.1357 77.8815 64.6594 77.8815C64.183 77.8815 63.715 77.7557 63.3028 77.5169C62.8906 77.2781 62.5487 76.9347 62.3118 76.5215V76.5193Z" fill="#202637"/>
<path d="M14.0259 51.7949C13.8202 52.4835 13.5004 53.065 13.0664 53.5393C12.6325 54.0136 12.1274 54.3838 11.5511 54.65C10.9658 54.9135 10.3536 55.0715 9.71452 55.1241C9.06912 55.1651 8.44236 55.0947 7.83425 54.9131C7.19931 54.7234 6.63041 54.4268 6.12753 54.0233C5.61571 53.6171 5.19768 53.1416 4.87344 52.5966C4.54025 52.049 4.32681 51.4592 4.23311 50.8273C4.13314 50.1837 4.18067 49.5355 4.3757 48.8827C4.57875 48.2031 4.9017 47.6274 5.34457 47.1558C5.79011 46.6752 6.30417 46.3077 6.88675 46.0531C7.472 45.7896 8.08285 45.636 8.71931 45.5924C9.35844 45.5398 9.97759 45.603 10.5768 45.782C11.2117 45.9717 11.7851 46.2696 12.2969 46.6758C12.8024 47.0703 13.2218 47.5414 13.555 48.0891C13.8792 48.634 14.0869 49.2269 14.1779 49.8678C14.2716 50.4997 14.2209 51.1421 14.0259 51.7949ZM8.2911 53.3838C8.73824 53.5174 9.19334 53.5755 9.6564 53.5579C10.1195 53.5404 10.5552 53.4514 10.9635 53.2909C11.3656 53.1188 11.7167 52.873 12.0167 52.5535C12.3167 52.234 12.5361 51.8418 12.6751 51.3768C12.8193 50.8938 12.8492 50.4352 12.7647 50.0008C12.6801 49.5665 12.5098 49.1746 12.2538 48.8254C11.9914 48.4645 11.6746 48.1556 11.3033 47.8985C10.9231 47.6388 10.5228 47.4462 10.1025 47.3206C9.65534 47.1871 9.20471 47.1304 8.7506 47.1505C8.29021 47.1591 7.85897 47.2495 7.45688 47.4216C7.04585 47.591 6.69033 47.8355 6.39033 48.1549C6.09299 48.4655 5.87619 48.8488 5.73994 49.3049C5.59567 49.7878 5.5658 50.2464 5.65033 50.6808C5.73487 51.1152 5.90384 51.5115 6.15724 51.8697C6.41065 52.2279 6.72166 52.5399 7.09028 52.8059C7.46158 53.063 7.86185 53.2556 8.2911 53.3838Z" fill="#F9FFFD"/>
<path d="M21.2 36.4567C20.8787 36.9266 20.5054 37.2989 20.0802 37.5735C19.6526 37.8351 19.1975 38.0045 18.7151 38.0817C18.2327 38.1588 17.7501 38.1454 17.2672 38.0413C16.7896 37.9296 16.3389 37.7288 15.9152 37.4391C15.345 37.0492 14.9119 36.5665 14.6158 35.9909C14.3249 35.4076 14.195 34.7874 14.226 34.1302C14.2623 33.4653 14.4991 32.8131 14.9364 32.1736C15.3578 31.5573 15.8626 31.1167 16.4508 30.8518C17.0366 30.5739 17.6305 30.4825 18.2325 30.5776L17.7799 32.0828C17.4308 32.0477 17.1 32.1098 16.7875 32.2692C16.4726 32.4156 16.2123 32.6391 16.0069 32.9396C15.7751 33.2786 15.653 33.6473 15.6405 34.0458C15.6256 34.4314 15.717 34.8104 15.9145 35.183C16.1096 35.5425 16.4075 35.8592 16.8081 36.1332C17.1933 36.3966 17.5992 36.5554 18.0257 36.6096C18.4445 36.6585 18.8386 36.6114 19.2078 36.4682C19.5747 36.312 19.874 36.0644 20.1058 35.7254C20.2481 35.5174 20.3504 35.2934 20.4127 35.0533C20.4727 34.8003 20.491 34.5585 20.4679 34.3278C20.437 34.0919 20.3656 33.8904 20.2536 33.7234L21.4769 32.7282C21.6878 33.0646 21.8193 33.4428 21.8713 33.8628C21.9286 34.2751 21.9054 34.7059 21.8017 35.1551C21.6956 35.5914 21.4951 36.0252 21.2 36.4567Z" fill="#F9FFFD"/>
<path d="M28.2761 27.6129L23.6554 21.9331L24.8501 20.9612L26.6877 23.2201L29.3268 21.0732L27.4891 18.8143L28.6837 17.8425L33.3044 23.5224L32.1098 24.4942L30.1661 22.105L27.527 24.2519L29.4707 26.6411L28.2761 27.6129Z" fill="#F9FFFD"/>
<path d="M44.2864 17.4451C43.7499 17.662 43.2329 17.7652 42.7355 17.7549C42.2345 17.736 41.7618 17.625 41.3174 17.4221C40.8816 17.2157 40.4976 16.9381 40.1653 16.5892C39.8295 16.2316 39.5654 15.8149 39.373 15.339C39.1806 14.8631 39.0809 14.3799 39.074 13.8894C39.067 13.399 39.1502 12.9324 39.3236 12.4898C39.5022 12.0351 39.7668 11.6312 40.1174 11.2781C40.4731 10.9128 40.9148 10.6235 41.4427 10.4101C41.9705 10.1968 42.4849 10.0996 42.9859 10.1185C43.492 10.1254 43.9629 10.232 44.3987 10.4384C44.8396 10.6326 45.228 10.9085 45.5638 11.266C45.8996 11.6236 46.1637 12.0403 46.3561 12.5162C46.5484 12.9922 46.6481 13.4754 46.6551 13.9658C46.6586 14.4476 46.571 14.9159 46.3925 15.3706C46.2225 15.8219 45.9597 16.2301 45.604 16.5954C45.2534 16.9485 44.8142 17.2317 44.2864 17.4451ZM40.845 14.7591C41.0198 15.1917 41.2681 15.5444 41.5897 15.8171C41.9114 16.0898 42.2638 16.2644 42.6471 16.341C43.0305 16.4176 43.4125 16.3789 43.7932 16.225C44.1653 16.0746 44.4625 15.8387 44.6849 15.5172C44.9125 15.1836 45.0472 14.8071 45.089 14.3875C45.1273 13.9592 45.0608 13.5331 44.8894 13.1091C44.7145 12.6765 44.4662 12.3238 44.1446 12.0511C43.823 11.7785 43.4662 11.6056 43.0742 11.5325C42.6874 11.4472 42.3079 11.4798 41.9359 11.6302C41.5551 11.7841 41.2553 12.0261 41.0364 12.3562C40.8175 12.6863 40.6871 13.0612 40.6453 13.4807C40.6 13.8917 40.6666 14.3178 40.845 14.7591Z" fill="#F9FFFD"/>
<path d="M56.1917 13.7211L55.4896 6.43286L59.3915 6.05698C59.856 6.01223 60.2454 6.06379 60.5597 6.21167C60.8824 6.34936 61.1311 6.54576 61.3057 6.80086C61.4794 7.04667 61.5814 7.32751 61.6119 7.64338C61.6504 8.04286 61.5915 8.40485 61.4352 8.72933C61.2789 9.05381 61.0272 9.31247 60.6801 9.50531C61.1098 9.58581 61.4695 9.76682 61.7592 10.0483C62.0572 10.3197 62.2291 10.6922 62.2747 11.1661C62.3159 11.5934 62.2486 11.9656 62.0728 12.2826C61.8962 12.5902 61.6246 12.8368 61.258 13.0221C60.8998 13.1973 60.4699 13.309 59.9682 13.3573L56.1917 13.7211ZM57.539 12.5224L59.8244 12.3023C60.0195 12.2835 60.1915 12.22 60.3405 12.1119C60.4979 11.9936 60.6154 11.851 60.6931 11.6841C60.7699 11.5079 60.7993 11.3269 60.7814 11.1411C60.7618 10.9367 60.6979 10.7601 60.5897 10.6111C60.4909 10.4612 60.3581 10.3474 60.1912 10.2697C60.0336 10.1911 59.8526 10.1617 59.6482 10.1814L57.3349 10.4042L57.539 12.5224ZM57.2396 9.4148L59.302 9.21612C59.4971 9.19732 59.6645 9.13431 59.8042 9.02709C59.943 8.91058 60.0462 8.76468 60.1137 8.5894C60.1812 8.41412 60.206 8.23358 60.1881 8.04777C60.1621 7.77835 60.0515 7.55459 59.8562 7.3765C59.6609 7.19841 59.4192 7.12323 59.1312 7.15098L57.0409 7.35235L57.2396 9.4148Z" fill="#F9FFFD"/>
<path d="M70.6904 11.1429C70.7745 10.6839 70.9763 10.3081 71.2957 10.0156C71.6259 9.71558 72.0373 9.51587 72.53 9.41645C73.0244 9.30786 73.5745 9.30913 74.1804 9.42026C74.5017 9.4792 74.8234 9.56192 75.1455 9.66844C75.4767 9.77664 75.7616 9.90481 76.0001 10.0529L76.0835 9.59852C76.1761 9.09361 76.097 8.67108 75.8463 8.33093C75.5955 7.99077 75.1856 7.7685 74.6164 7.6641C74.2125 7.59001 73.818 7.59358 73.433 7.67479C73.0498 7.74683 72.6326 7.87432 72.1815 8.05728L71.8589 6.94482C72.3952 6.71108 72.9164 6.55995 73.4223 6.49145C73.9375 6.42463 74.4613 6.44005 74.9938 6.53771C75.9577 6.71451 76.6679 7.11047 77.1244 7.72559C77.5918 8.33321 77.7396 9.10521 77.5679 10.0416L77.0754 12.7268C77.0434 12.9012 77.0482 13.0302 77.0898 13.1137C77.1406 13.199 77.2386 13.2597 77.3838 13.2958L77.1615 14.5076C77.0188 14.5098 76.8915 14.5055 76.7796 14.4944C76.6678 14.4834 76.5751 14.4712 76.5017 14.4577C76.1804 14.3988 75.9514 14.2761 75.8148 14.0897C75.6782 13.9034 75.6155 13.7021 75.6267 13.4859L75.6611 13.0652C75.2749 13.4119 74.8183 13.6508 74.2914 13.7818C73.7644 13.9129 73.253 13.933 72.7573 13.8421C72.2799 13.7545 71.8707 13.5798 71.5297 13.318C71.1904 13.047 70.9463 12.7223 70.7974 12.3439C70.6486 11.9655 70.6129 11.5652 70.6904 11.1429ZM75.195 12.4246C75.3271 12.3255 75.4362 12.2221 75.5223 12.1146C75.6085 12.007 75.66 11.9073 75.6768 11.8155L75.8284 10.9893C75.5898 10.8412 75.3325 10.7181 75.0563 10.62C74.7819 10.5127 74.5069 10.4338 74.2315 10.3833C73.6807 10.2823 73.2107 10.3099 72.8214 10.4662C72.4413 10.6243 72.2159 10.8961 72.1452 11.2816C72.1065 11.4928 72.1245 11.7048 72.1993 11.9178C72.2833 12.1325 72.4199 12.3189 72.6092 12.477C72.8076 12.6367 73.0675 12.7461 73.3888 12.805C73.7193 12.8656 74.0478 12.8594 74.3743 12.7865C74.7008 12.7135 74.9744 12.5929 75.195 12.4246Z" fill="#F9FFFD"/>
<path d="M86.5591 17.7811L89.1434 12.4061L86.9606 11.3566L87.549 10.1327L93.3152 12.9051L92.7267 14.129L90.5313 13.0734L87.947 18.4484L86.5591 17.7811Z" fill="#F9FFFD"/>
<path d="M99.1667 25.9723C98.7408 25.5945 98.4183 25.1775 98.1993 24.7212C97.9934 24.2641 97.8794 23.7949 97.8572 23.3136C97.8412 22.8253 97.912 22.3516 98.0696 21.8926C98.2404 21.4328 98.4962 21.0109 98.8368 20.6268C99.2951 20.1102 99.8319 19.7442 100.447 19.5288C101.068 19.3065 101.707 19.2551 102.362 19.3745C103.023 19.487 103.64 19.7972 104.213 20.3051C104.785 20.8129 105.16 21.3822 105.336 22.013C105.526 22.6429 105.547 23.2731 105.4 23.9034C105.252 24.5337 104.962 25.0932 104.528 25.5819C104.454 25.6657 104.379 25.7429 104.304 25.8135C104.235 25.8772 104.176 25.9303 104.125 25.973L99.737 22.0804C99.4731 22.4201 99.3095 22.7803 99.2464 23.161C99.1964 23.5408 99.2316 23.909 99.3521 24.2654C99.4788 24.6148 99.6818 24.9134 99.9611 25.1611C100.268 25.4337 100.626 25.6139 101.035 25.7018C101.45 25.7959 101.818 25.7607 102.139 25.596L102.873 26.7521C102.519 26.9121 102.124 26.992 101.687 26.9917C101.264 26.9906 100.833 26.9073 100.393 26.7419C99.9595 26.5695 99.5507 26.313 99.1667 25.9723ZM100.384 21.288L103.693 24.2237C103.951 23.8909 104.105 23.5346 104.155 23.1547C104.218 22.7741 104.186 22.4091 104.06 22.0596C103.946 21.7094 103.743 21.4042 103.45 21.1441C103.163 20.8902 102.836 20.7246 102.468 20.6475C102.113 20.5696 101.75 20.5847 101.38 20.6928C101.015 20.794 100.683 20.9923 100.384 21.288Z" fill="#F9FFFD"/>
<path d="M107.445 34.4708L108.617 33.7579C108.739 33.9573 108.896 34.1076 109.088 34.2089C109.289 34.3053 109.541 34.343 109.845 34.322C110.157 34.2961 110.546 34.1906 111.013 34.0053C111.479 33.82 112.046 33.5405 112.715 33.1668L114.656 32.1011L117.369 36.5628L111.113 40.3674L110.313 39.0516L115.409 35.9526L114.201 33.967L113.337 34.4596C112.48 34.9369 111.737 35.2855 111.106 35.5054C110.483 35.7204 109.942 35.8197 109.484 35.8032C109.039 35.7899 108.648 35.6674 108.31 35.4357C107.986 35.2071 107.697 34.8855 107.445 34.4708Z" fill="#F9FFFD"/>
<path d="M114.997 48.9686L122.076 47.0983L122.47 48.5873L120.142 49.2023L120.589 50.8943C120.81 51.7335 120.766 52.4257 120.457 52.9709C120.149 53.5251 119.648 53.894 118.954 54.0776C118.484 54.2015 118.04 54.2176 117.62 54.1259C117.2 54.0341 116.837 53.8307 116.532 53.5155C116.229 53.2094 116.006 52.7857 115.863 52.2442L114.997 48.9686ZM116.541 50.1536L116.952 51.7102C117.031 52.0079 117.148 52.2328 117.304 52.3846C117.469 52.5341 117.659 52.6289 117.872 52.6691C118.094 52.7069 118.318 52.696 118.544 52.6364C118.769 52.5768 118.962 52.4825 119.121 52.3537C119.289 52.2224 119.402 52.0477 119.46 51.8296C119.53 51.6181 119.523 51.3545 119.439 51.0386L119.032 49.4956L116.541 50.1536Z" fill="#F9FFFD"/>
<path d="M115.621 96.4824C115.826 95.7938 116.146 95.2124 116.58 94.7381C117.014 94.2638 117.519 93.8935 118.095 93.6274C118.681 93.3639 119.293 93.2058 119.932 93.1532C120.577 93.1123 121.204 93.1826 121.812 93.3643C122.447 93.554 123.016 93.8506 123.519 94.2541C124.031 94.6602 124.449 95.1358 124.773 95.6807C125.106 96.2284 125.32 96.8181 125.413 97.4501C125.513 98.0936 125.466 98.7418 125.271 99.3946C125.068 100.074 124.745 100.65 124.302 101.122C123.856 101.602 123.342 101.97 122.76 102.224C122.174 102.488 121.564 102.641 120.927 102.685C120.288 102.738 119.669 102.674 119.07 102.495C118.435 102.306 117.861 102.008 117.35 101.602C116.844 101.207 116.425 100.736 116.091 100.188C115.767 99.6433 115.56 99.0504 115.469 98.4095C115.375 97.7776 115.426 97.1352 115.621 96.4824ZM121.355 94.8935C120.908 94.7599 120.453 94.7019 119.99 94.7194C119.527 94.7369 119.091 94.8259 118.683 94.9864C118.281 95.1585 117.93 95.4043 117.63 95.7238C117.33 96.0433 117.11 96.4356 116.971 96.9006C116.827 97.3835 116.797 97.8421 116.882 98.2765C116.966 98.7109 117.137 99.1027 117.393 99.4519C117.655 99.8128 117.972 100.122 118.343 100.379C118.723 100.639 119.124 100.831 119.544 100.957C119.991 101.09 120.442 101.147 120.896 101.127C121.356 101.118 121.788 101.028 122.19 100.856C122.601 100.686 122.956 100.442 123.256 100.122C123.553 99.8118 123.77 99.4285 123.907 98.9724C124.051 98.4895 124.081 98.0309 123.996 97.5965C123.912 97.1621 123.743 96.7659 123.489 96.4077C123.236 96.0495 122.925 95.7374 122.556 95.4714C122.185 95.2144 121.785 95.0217 121.355 94.8935Z" fill="#F9FFFD"/>
<path d="M108.446 111.821C108.768 111.351 109.141 110.978 109.566 110.704C109.994 110.442 110.449 110.273 110.931 110.196C111.414 110.119 111.896 110.132 112.379 110.236C112.857 110.348 113.308 110.549 113.731 110.838C114.301 111.228 114.735 111.711 115.031 112.286C115.322 112.87 115.451 113.49 115.42 114.147C115.384 114.812 115.147 115.464 114.71 116.104C114.289 116.72 113.784 117.161 113.196 117.426C112.61 117.703 112.016 117.795 111.414 117.7L111.867 116.195C112.216 116.23 112.546 116.168 112.859 116.008C113.174 115.862 113.434 115.638 113.64 115.338C113.871 114.999 113.994 114.63 114.006 114.231C114.021 113.846 113.93 113.467 113.732 113.094C113.537 112.735 113.239 112.418 112.838 112.144C112.453 111.881 112.047 111.722 111.621 111.668C111.202 111.619 110.808 111.666 110.439 111.809C110.072 111.965 109.772 112.213 109.541 112.552C109.398 112.76 109.296 112.984 109.234 113.224C109.174 113.477 109.155 113.719 109.179 113.95C109.21 114.185 109.281 114.387 109.393 114.554L108.17 115.549C107.959 115.213 107.827 114.835 107.775 114.415C107.718 114.002 107.741 113.571 107.845 113.122C107.951 112.686 108.151 112.252 108.446 111.821Z" fill="#F9FFFD"/>
<path d="M101.37 120.664L105.991 126.344L104.796 127.316L102.959 125.057L100.32 127.204L102.157 129.463L100.963 130.435L96.3421 124.755L97.5367 123.783L99.4804 126.172L102.119 124.025L100.176 121.636L101.37 120.664Z" fill="#F9FFFD"/>
<path d="M85.3601 130.832C85.8966 130.615 86.4135 130.512 86.911 130.522C87.412 130.541 87.8846 130.652 88.3291 130.855C88.7649 131.062 89.1489 131.339 89.4812 131.688C89.817 132.046 90.0811 132.462 90.2735 132.938C90.4659 133.414 90.5655 133.897 90.5725 134.388C90.5795 134.878 90.4963 135.345 90.3228 135.787C90.1443 136.242 89.8797 136.646 89.5291 136.999C89.1734 137.365 88.7317 137.654 88.2038 137.867C87.676 138.081 87.1616 138.178 86.6606 138.159C86.1545 138.152 85.6836 138.045 85.2478 137.839C84.8069 137.645 84.4185 137.369 84.0827 137.011C83.7469 136.654 83.4828 136.237 83.2904 135.761C83.098 135.285 82.9984 134.802 82.9914 134.312C82.9879 133.83 83.0754 133.361 83.254 132.907C83.424 132.455 83.6868 132.047 84.0425 131.682C84.393 131.329 84.8322 131.046 85.3601 130.832ZM88.8015 133.518C88.6266 133.086 88.3784 132.733 88.0567 132.46C87.7351 132.188 87.3827 132.013 86.9993 131.936C86.616 131.86 86.234 131.898 85.8533 132.052C85.4812 132.203 85.1839 132.439 84.9615 132.76C84.734 133.094 84.5993 133.47 84.5575 133.89C84.5192 134.318 84.5857 134.744 84.7571 135.168C84.932 135.601 85.1803 135.954 85.5019 136.226C85.8235 136.499 86.1803 136.672 86.5723 136.745C86.9591 136.83 87.3385 136.798 87.7106 136.647C88.0914 136.493 88.3912 136.251 88.6101 135.921C88.829 135.591 88.9594 135.216 89.0012 134.797C89.0465 134.386 88.9799 133.96 88.8015 133.518Z" fill="#F9FFFD"/>
<path d="M73.4548 134.556L74.1569 141.844L70.255 142.22C69.7904 142.265 69.401 142.214 69.0867 142.066C68.764 141.928 68.5154 141.732 68.3408 141.476C68.1671 141.231 68.065 140.95 68.0346 140.634C67.9961 140.234 68.055 139.872 68.2113 139.548C68.3676 139.224 68.6193 138.965 68.9664 138.772C68.5367 138.692 68.177 138.511 67.8873 138.229C67.5893 137.958 67.4174 137.585 67.3718 137.111C67.3306 136.684 67.3979 136.312 67.5736 135.995C67.7503 135.687 68.0219 135.441 68.3885 135.255C68.7467 135.08 69.1766 134.968 69.6783 134.92L73.4548 134.556ZM72.1075 135.755L69.8221 135.975C69.627 135.994 69.455 136.057 69.306 136.165C69.1486 136.284 69.0311 136.426 68.9534 136.593C68.8766 136.769 68.8471 136.95 68.865 137.136C68.8847 137.341 68.9486 137.517 69.0567 137.666C69.1556 137.816 69.2884 137.93 69.4553 138.008C69.6129 138.086 69.7939 138.116 69.9983 138.096L72.3116 137.873L72.1075 135.755ZM72.4069 138.863L70.3444 139.061C70.1493 139.08 69.9819 139.143 69.8423 139.25C69.7035 139.367 69.6003 139.513 69.5328 139.688C69.4653 139.863 69.4405 140.044 69.4584 140.23C69.4843 140.499 69.595 140.723 69.7903 140.901C69.9856 141.079 70.2273 141.154 70.5153 141.126L72.6056 140.925L72.4069 138.863Z" fill="#F9FFFD"/>
<path d="M58.9561 137.134C58.8719 137.593 58.6702 137.969 58.3508 138.262C58.0206 138.562 57.6092 138.761 57.1165 138.861C56.6221 138.969 56.072 138.968 55.4661 138.857C55.1448 138.798 54.8231 138.715 54.501 138.609C54.1698 138.501 53.8849 138.373 53.6464 138.224L53.563 138.679C53.4704 139.184 53.5495 139.606 53.8002 139.946C54.051 140.287 54.4609 140.509 55.0301 140.613C55.434 140.687 55.8285 140.684 56.2134 140.603C56.5967 140.531 57.0139 140.403 57.465 140.22L57.7876 141.333C57.2513 141.566 56.7301 141.717 56.2241 141.786C55.709 141.853 55.1851 141.837 54.6527 141.74C53.6888 141.563 52.9786 141.167 52.522 140.552C52.0547 139.944 51.9068 139.172 52.0786 138.236L52.5711 135.551C52.6031 135.376 52.5983 135.247 52.5567 135.164C52.5059 135.078 52.4079 135.018 52.2627 134.982L52.485 133.77C52.6277 133.768 52.755 133.772 52.8669 133.783C52.9787 133.794 53.0714 133.806 53.1448 133.82C53.4661 133.879 53.6951 134.001 53.8317 134.188C53.9683 134.374 54.031 134.575 54.0198 134.791L53.9854 135.212C54.3716 134.865 54.8282 134.627 55.3551 134.495C55.8821 134.364 56.3934 134.344 56.8892 134.435C57.3665 134.523 57.7757 134.698 58.1168 134.959C58.4561 135.23 58.7002 135.555 58.849 135.933C58.9979 136.312 59.0336 136.712 58.9561 137.134ZM54.4514 135.853C54.3194 135.952 54.2103 136.055 54.1241 136.163C54.038 136.27 53.9865 136.37 53.9697 136.462L53.8181 137.288C54.0566 137.436 54.314 137.559 54.5901 137.657C54.8646 137.765 55.1396 137.844 55.415 137.894C55.9658 137.995 56.4358 137.967 56.8251 137.811C57.2052 137.653 57.4306 137.381 57.5013 136.996C57.54 136.785 57.522 136.572 57.4472 136.36C57.3632 136.145 57.2266 135.958 57.0373 135.8C56.8389 135.641 56.579 135.531 56.2577 135.472C55.9272 135.412 55.5987 135.418 55.2722 135.491C54.9457 135.564 54.6721 135.684 54.4514 135.853Z" fill="#F9FFFD"/>
<path d="M43.0874 130.496L40.5031 135.871L42.6859 136.921L42.0974 138.145L36.3313 135.372L36.9197 134.148L39.1152 135.204L41.6995 129.829L43.0874 130.496Z" fill="#F9FFFD"/>
<path d="M30.4798 122.305C30.9057 122.683 31.2282 123.1 31.4472 123.556C31.6531 124.013 31.7671 124.482 31.7893 124.964C31.8053 125.452 31.7345 125.926 31.5769 126.385C31.406 126.845 31.1503 127.266 30.8097 127.65C30.3513 128.167 29.8146 128.533 29.1994 128.749C28.578 128.971 27.9398 129.022 27.2847 128.903C26.6234 128.79 26.0065 128.48 25.434 127.972C24.8614 127.464 24.4869 126.895 24.3103 126.264C24.1205 125.634 24.0993 125.004 24.2467 124.374C24.3941 123.744 24.6845 123.184 25.1181 122.695C25.1924 122.612 25.2671 122.534 25.3422 122.464C25.4112 122.4 25.4708 122.347 25.5211 122.304L29.9094 126.197C30.1734 125.857 30.337 125.497 30.4001 125.116C30.4501 124.737 30.4149 124.368 30.2943 124.012C30.1676 123.663 29.9647 123.364 29.6854 123.116C29.3781 122.844 29.0203 122.663 28.6117 122.576C28.1961 122.481 27.828 122.517 27.5073 122.681L26.7736 121.525C27.1277 121.365 27.5229 121.285 27.9593 121.286C28.3825 121.287 28.8139 121.37 29.2536 121.535C29.687 121.708 30.0957 121.964 30.4798 122.305ZM29.2627 126.989L25.9531 124.054C25.6953 124.386 25.5415 124.743 25.4915 125.123C25.4283 125.503 25.4601 125.868 25.5868 126.218C25.7003 126.568 25.9037 126.873 26.1969 127.133C26.4832 127.387 26.8105 127.553 27.1787 127.63C27.5338 127.708 27.8965 127.693 28.2669 127.585C28.6311 127.483 28.963 127.285 29.2627 126.989Z" fill="#F9FFFD"/>
<path d="M22.2014 113.806L21.0291 114.519C20.9079 114.32 20.7509 114.17 20.5582 114.068C20.3576 113.972 20.1052 113.934 19.8012 113.955C19.4893 113.981 19.1001 114.087 18.6338 114.272C18.1675 114.457 17.6002 114.737 16.9317 115.111L14.9909 116.176L12.2774 111.715L18.5333 107.91L19.3335 109.226L14.2379 112.325L15.4455 114.31L16.3093 113.818C17.166 113.34 17.9099 112.992 18.5408 112.772C19.1638 112.557 19.7042 112.458 20.1621 112.474C20.6072 112.487 20.9985 112.61 21.336 112.842C21.6607 113.07 21.9492 113.392 22.2014 113.806Z" fill="#F9FFFD"/>
<path d="M14.6491 99.3087L7.57003 101.179L7.17666 99.6901L9.50478 99.075L9.05777 97.3831C8.83605 96.5439 8.88003 95.8517 9.18971 95.3065C9.49701 94.7523 9.99807 94.3834 10.6929 94.1998C11.1621 94.0758 11.6068 94.0597 12.0268 94.1515C12.4468 94.2432 12.8095 94.4467 13.1148 94.7618C13.4177 95.0679 13.6407 95.4917 13.7837 96.0331L14.6491 99.3087ZM13.1052 98.1238L12.694 96.5672C12.6153 96.2694 12.498 96.0446 12.342 95.8927C12.177 95.7432 11.9879 95.6484 11.7745 95.6082C11.5522 95.5704 11.3282 95.5813 11.1026 95.6409C10.877 95.7005 10.6847 95.7948 10.5257 95.9237C10.3577 96.055 10.2445 96.2297 10.1863 96.4478C10.1167 96.6592 10.1236 96.9229 10.207 97.2387L10.6147 98.7818L13.1052 98.1238Z" fill="#F9FFFD"/>
<defs>
<linearGradient id="paint0_linear_168_318" x1="16" y1="81.1819" x2="116" y2="81.1819" gradientUnits="userSpaceOnUse">
<stop stop-color="#E8CB6C"/>
<stop offset="1" stop-color="#B39D55"/>
</linearGradient>
</defs>
</svg>
