<svg width="46" height="46" viewBox="0 0 46 46" fill="none" xmlns="http://www.w3.org/2000/svg">
<path d="M33.0625 23.575C32.2 23.2875 31.3375 23 30.7625 23H23V20.125H31.625C31.625 18.4 30.475 17.25 28.75 17.25H17.25C17.25 18.975 18.4 20.125 20.125 20.125V23C18.6875 23 17.25 22.425 16.675 21.275L13.5125 16.1C12.65 14.95 11.5 14.375 10.35 14.375H8.625V12.3625C8.625 11.5 8.3375 10.925 8.05 10.0625L7.1875 8.05C6.325 6.6125 4.6 5.75 2.875 5.75H0L14.375 25.875C15.525 27.6 17.5375 28.75 19.55 28.75H23V31.625H20.125V37.375H18.4C15.8125 37.375 13.225 38.525 11.5 40.25H8.625V43.125H40.25V40.25H37.375C35.65 38.525 33.0625 37.375 30.475 37.375H28.75V31.625H25.875V28.75H30.475C31.05 28.75 31.9125 29.0375 32.4875 29.325L37.375 31.9125C39.9625 33.35 43.125 33.35 45.7125 31.9125H46L33.0625 23.575Z" fill="#202637"/>
</svg>
