<svg width="94" height="94" viewBox="0 0 94 94" fill="none" xmlns="http://www.w3.org/2000/svg">
<path d="M70.0603 6.97952C77.0166 10.996 82.8033 16.7596 86.8475 23.6998C90.8917 30.6399 93.0533 38.516 93.1181 46.5483C93.183 54.5805 91.149 62.4905 87.2174 69.4951C83.2858 76.4997 77.593 82.356 70.7025 86.4843C63.812 90.6126 55.9628 92.8698 47.9319 93.0323C39.901 93.1948 31.967 91.2571 24.9151 87.411C17.8632 83.5648 11.9381 77.9436 7.72633 71.1039C3.51454 64.2641 1.16213 56.4429 0.901967 48.4146L0.878906 46.9203L0.901967 45.4259C1.21245 35.8291 4.51042 26.5684 10.3359 18.9356C16.1614 11.3028 24.2239 5.67846 33.3988 2.84709C33.0217 4.8465 33.0902 6.90448 33.5994 8.87439C34.1087 10.8443 35.0461 12.6777 36.3449 14.2438C37.6438 15.81 39.272 17.0704 41.1137 17.9354C42.9554 18.8003 44.9652 19.2484 46.9998 19.2477C48.223 19.2477 49.3961 18.7618 50.2611 17.8968C51.126 17.0319 51.6119 15.8588 51.6119 14.6356C51.6119 13.4124 51.126 12.2393 50.2611 11.3744C49.3961 10.5094 48.223 10.0235 46.9998 10.0235L46.4602 9.99122C45.2929 9.85238 44.2227 9.27305 43.4682 8.3716C42.7137 7.47016 42.3319 6.31463 42.4008 5.14112C42.4697 3.96761 42.9841 2.86469 43.8389 2.05772C44.6936 1.25074 45.8243 0.80062 46.9998 0.799316C54.9603 0.799316 62.9254 2.86092 70.0603 6.97952ZM61.7585 57.4635C60.8851 56.6074 59.7074 56.1332 58.4844 56.1453C57.2614 56.1575 56.0933 56.6548 55.237 57.5281C54.1634 58.6242 52.8819 59.495 51.4674 60.0895C50.053 60.684 48.5341 60.9902 46.9998 60.9902C45.4655 60.9902 43.9467 60.684 42.5322 60.0895C41.1178 59.495 39.8362 58.6242 38.7626 57.5281C37.902 56.675 36.7402 56.1949 35.5285 56.1915C34.3167 56.1882 33.1522 56.6619 32.2869 57.5102C31.4216 58.3586 30.925 59.5134 30.9043 60.725C30.8836 61.9366 31.3407 63.1077 32.1766 63.985C34.1089 65.9569 36.4153 67.5234 38.9606 68.5928C41.5059 69.6622 44.239 70.213 46.9998 70.213C49.7607 70.213 52.4938 69.6622 55.0391 68.5928C57.5844 67.5234 59.8907 65.9569 61.8231 63.985C62.6792 63.1116 63.1534 61.9339 63.1413 60.7109C63.1292 59.4879 62.6318 58.3198 61.7585 57.4635ZM33.2097 33.084L32.6239 33.1163C31.4566 33.2551 30.3864 33.8344 29.6319 34.7359C28.8774 35.6373 28.4956 36.7929 28.5645 37.9664C28.6334 39.1399 29.1478 40.2428 30.0026 41.0498C30.8574 41.8567 31.988 42.3069 33.1636 42.3082L33.7493 42.2759C34.9166 42.137 35.9868 41.5577 36.7413 40.6563C37.4958 39.7548 37.8776 38.5993 37.8087 37.4258C37.7398 36.2523 37.2255 35.1494 36.3707 34.3424C35.5159 33.5354 34.3852 33.0853 33.2097 33.084ZM60.8822 33.084L60.2965 33.1163C59.1292 33.2551 58.059 33.8344 57.3045 34.7359C56.55 35.6373 56.1682 36.7929 56.2371 37.9664C56.306 39.1399 56.8204 40.2428 57.6751 41.0498C58.5299 41.8567 59.6606 42.3069 60.8361 42.3082L61.4219 42.2759C62.5892 42.137 63.6594 41.5577 64.4139 40.6563C65.1684 39.7548 65.5502 38.5993 65.4813 37.4258C65.4124 36.2523 64.898 35.1494 64.0432 34.3424C63.1884 33.5354 62.0578 33.0853 60.8822 33.084Z" fill="white"/>
</svg>
