<svg width="72" height="84" viewBox="0 0 72 84" fill="none" xmlns="http://www.w3.org/2000/svg">
<path fill-rule="evenodd" clip-rule="evenodd" d="M24.1877 42.2307C24.0948 42.5266 23.9619 42.81 23.7747 43.0583C23.6047 43.2838 23.4022 43.4786 23.167 43.6339C22.9395 43.7842 22.6957 43.9056 22.4386 43.9952C22.1817 44.0851 21.9163 44.1475 21.6466 44.1834C21.3859 44.2182 21.123 44.2374 20.86 44.2374H17.7988V44.0064L17.8682 43.998C17.9974 43.9824 18.1231 43.9482 18.2429 43.8967C18.3369 43.8566 18.4368 43.8007 18.5037 43.7216L18.5059 43.7191L18.5081 43.7169C18.5292 43.6954 18.5422 43.6453 18.548 43.6172C18.5627 43.546 18.5741 43.4739 18.5835 43.4018C18.5949 43.3166 18.6027 43.2309 18.6077 43.1448C18.6127 43.0563 18.6157 42.9675 18.6157 42.879C18.6157 42.7744 18.6171 42.6697 18.6196 42.5653C18.6226 42.422 18.6254 42.2783 18.6282 42.1353C18.6307 41.9758 18.6321 41.8163 18.6321 41.657V39.2868C18.6321 39.1975 18.6287 39.1084 18.6201 39.0196C18.6129 38.9464 18.6024 38.8726 18.5852 38.8011C18.5747 38.7571 18.5575 38.7081 18.5281 38.6731C18.4582 38.5893 18.373 38.5272 18.2693 38.4927C18.1503 38.4529 18.0254 38.4284 17.9009 38.4142L17.831 38.4061V38.1745H17.9098C18.2393 38.1745 18.5688 38.1723 18.8981 38.1704C19.4185 38.167 19.9391 38.1665 20.4595 38.1665H20.9826C21.1651 38.1665 21.3476 38.1745 21.5293 38.1912C21.7135 38.2082 21.8966 38.236 22.0774 38.2747C22.2652 38.3145 22.4474 38.3752 22.6236 38.4518C22.8591 38.5537 23.0804 38.6831 23.2851 38.8384C23.4946 38.9974 23.6762 39.1864 23.8288 39.4007C23.9919 39.6298 24.1126 39.8848 24.1994 40.152C24.3009 40.464 24.3381 40.7966 24.3381 41.124C24.3381 41.495 24.299 41.875 24.1874 42.2299L24.1877 42.2307ZM19.7313 38.5077C19.6994 38.8518 19.6922 39.2061 19.6883 39.5507C19.682 40.1108 19.6803 40.6711 19.6803 41.2312V42.1906C19.6803 42.422 19.6814 42.6538 19.6883 42.8851V42.8874C19.6883 42.9684 19.6928 43.0494 19.7003 43.1301C19.7083 43.2167 19.7177 43.3035 19.7288 43.3898C19.738 43.4619 19.7532 43.534 19.7777 43.6027C19.7921 43.6431 19.8145 43.6943 19.8453 43.7252C19.9477 43.8279 20.0742 43.8867 20.2162 43.9126C20.3663 43.9396 20.5194 43.956 20.6722 43.956C20.8103 43.956 20.9482 43.949 21.0858 43.9359C21.2178 43.9237 21.3482 43.8981 21.4761 43.8611C22.0208 43.7027 22.4574 43.3993 22.7498 42.9082C23.0671 42.3755 23.1758 41.7545 23.1758 41.1407C23.1758 40.8328 23.1281 40.5311 23.0324 40.2385C22.9398 39.9546 22.8089 39.6868 22.6349 39.4438C22.468 39.2109 22.2666 39.0088 22.0325 38.8434C21.8048 38.6825 21.554 38.5759 21.2799 38.5283L21.278 38.5278C21.1615 38.5047 21.0439 38.4877 20.926 38.4757C20.7693 38.4596 20.609 38.4557 20.4517 38.4557C20.3818 38.4557 20.3119 38.4573 20.2423 38.4598C20.1693 38.4626 20.0964 38.4674 20.0237 38.4754C19.9549 38.4832 19.8861 38.4905 19.8173 38.4963C19.7896 38.4985 19.7605 38.5019 19.7319 38.5069L19.7313 38.5077ZM26.6769 38.4782C26.6728 38.5239 26.6706 38.5701 26.6681 38.6152C26.6622 38.7279 26.6583 38.8409 26.655 38.9537C26.6453 39.2696 26.6428 39.5861 26.6428 39.9023V40.4275C26.6428 40.5428 26.6431 40.6583 26.6467 40.7735C26.6489 40.8437 26.6509 40.9144 26.6509 40.9848V40.9959H26.7355C26.8281 40.9959 26.921 40.9926 27.0137 40.9882C27.1191 40.9829 27.2248 40.9759 27.3302 40.9678C27.4145 40.9614 27.5016 40.9517 27.584 40.9325C27.7166 40.9019 27.8527 40.8565 27.9698 40.7861C28.0638 40.7293 28.147 40.6583 28.2122 40.5695C28.2794 40.4779 28.3285 40.3749 28.3642 40.2672C28.4086 40.1347 28.4433 39.9983 28.4724 39.8616L28.4857 39.7993H28.7262V42.5405H28.4879L28.473 42.4807C28.4275 42.2989 28.3595 42.123 28.2782 41.9543C28.2119 41.8174 28.1246 41.6646 28.015 41.5613C27.9293 41.4859 27.8289 41.4291 27.7235 41.3868C27.5953 41.3353 27.4555 41.3113 27.3185 41.3021C27.2508 41.2974 27.1831 41.2932 27.1155 41.2899C27.0622 41.2874 27.0092 41.286 26.956 41.286H26.6506C26.6428 41.3712 26.6428 41.4608 26.6428 41.5435V42.5272C26.6428 42.6096 26.6436 42.692 26.6467 42.7744C26.6489 42.8423 26.6509 42.9102 26.6509 42.9756C26.6559 43.1396 26.6647 43.3038 26.6792 43.4672C26.6877 43.5643 26.7074 43.696 26.761 43.7801C26.8106 43.8574 26.9773 43.8945 27.06 43.9089C27.2547 43.9432 27.4533 43.9571 27.6511 43.9571C27.7684 43.9571 27.886 43.9535 28.0036 43.949C28.1529 43.9435 28.3018 43.9281 28.4499 43.9084C28.6083 43.8878 28.7645 43.8499 28.9115 43.787C29.0591 43.7241 29.1939 43.6359 29.3165 43.5326C29.4596 43.4118 29.5872 43.2712 29.7012 43.1226C29.8449 42.9353 29.9733 42.7326 30.0915 42.5283L30.122 42.476L30.3458 42.5369L29.9017 44.2379H24.7611V44.0094L24.8274 43.9988C24.9516 43.9791 25.0734 43.9462 25.1893 43.8975C25.2898 43.8552 25.3788 43.7959 25.4495 43.7152C25.4742 43.6854 25.4897 43.6387 25.4992 43.6019C25.5169 43.5329 25.5308 43.4622 25.5424 43.392C25.556 43.3091 25.5652 43.2256 25.5702 43.1418C25.5755 43.0547 25.5785 42.9673 25.5785 42.8799C25.5785 42.7755 25.5799 42.6708 25.5824 42.5664C25.5854 42.4231 25.5882 42.2797 25.5907 42.1364C25.5935 41.9769 25.5946 41.8174 25.5946 41.6579V39.5833C25.5946 39.4828 25.5932 39.3823 25.5907 39.2818C25.5882 39.185 25.5829 39.0881 25.5746 38.9915C25.5677 38.9119 25.5563 38.8317 25.5361 38.7544C25.5261 38.7157 25.5075 38.6594 25.4786 38.6302L25.4773 38.6288C25.4157 38.5631 25.3411 38.5066 25.2531 38.483C25.1389 38.4526 25.019 38.4323 24.9023 38.415L24.8351 38.405V38.1759H29.4776L30.0815 39.6456L29.8773 39.7478L29.8377 39.698C29.5162 39.2955 29.089 38.8356 28.6236 38.6049C28.4965 38.5456 28.2702 38.5152 28.1321 38.4971C27.8342 38.4582 27.5268 38.4484 27.227 38.4484C27.1102 38.4484 26.9934 38.4532 26.8769 38.4607C26.8137 38.4649 26.7438 38.469 26.6783 38.4785L26.6769 38.4782ZM31.7419 39.1504V42.4039C31.7419 42.6536 31.7469 42.9041 31.7624 43.1535C31.771 43.2966 31.7918 43.4934 31.8564 43.6231L31.857 43.6245C31.91 43.7358 31.9924 43.8157 32.1025 43.87C32.2517 43.9432 32.4409 43.978 32.6043 43.9977L32.6736 44.0064V44.2377H30.5059V44.0066L30.575 43.998C30.7031 43.9821 30.8276 43.9482 30.9478 43.9006C31.0637 43.8544 31.1541 43.7789 31.221 43.6732L31.2218 43.6718C31.3081 43.5418 31.3414 43.3517 31.3561 43.1994C31.3816 42.9344 31.3941 42.6664 31.4049 42.4002C31.4162 42.1233 31.4251 41.8466 31.4296 41.5696C31.4354 41.227 31.4376 40.8843 31.4376 40.5419V39.5415C31.4376 39.4093 31.434 39.2774 31.4298 39.1454C31.4168 39.0249 31.3885 38.8958 31.3264 38.7905C31.2773 38.7081 31.2154 38.6324 31.1364 38.577C31.0629 38.5258 30.983 38.488 30.8964 38.4657C30.8096 38.4434 30.7214 38.4253 30.6326 38.4142L30.5636 38.4056V38.1745H32.3371L36.0959 42.5828V40.0086C36.0959 39.8001 36.0937 39.5919 36.0879 39.3834C36.084 39.2418 36.0701 39.0714 36.0191 38.9378L36.0185 38.9361C35.9683 38.7958 35.8807 38.6856 35.7584 38.6015C35.6 38.4927 35.3775 38.4412 35.1906 38.4136L35.1232 38.4039V38.1745H37.3075V38.405L37.2393 38.4142C37.0856 38.4348 36.9175 38.4752 36.7844 38.5584C36.6654 38.633 36.5866 38.7457 36.5336 38.874L36.5331 38.876L36.5322 38.8774C36.484 38.9807 36.4715 39.19 36.4659 39.303C36.4546 39.5393 36.444 39.7756 36.4335 40.012C36.421 40.2889 36.4121 40.5656 36.4046 40.8428C36.396 41.1849 36.3924 41.5276 36.3924 41.87V42.3947C36.3924 42.5898 36.3936 42.7849 36.3963 42.9801C36.3988 43.1785 36.4005 43.3773 36.4005 43.576V44.1088C36.4005 44.15 36.3863 44.1884 36.3572 44.2176C36.3259 44.2494 36.2834 44.2613 36.2399 44.2613C36.1606 44.2613 36.0909 44.2107 36.0371 44.1567L36.0349 44.1544L36.0332 44.1522C35.6091 43.6618 35.1864 43.1696 34.7662 42.6755C34.4025 42.248 34.0389 41.8202 33.6752 41.3923C33.3368 40.994 32.9979 40.5959 32.6581 40.1993C32.356 39.8466 32.0506 39.4967 31.7422 39.1493L31.7419 39.1504ZM39.9443 38.5464H39.4838C39.4098 38.5464 39.3357 38.5481 39.2617 38.5506C39.1696 38.5539 39.0772 38.5548 38.9871 38.5548C38.8276 38.5589 38.6511 38.5748 38.4986 38.6249C38.3685 38.6675 38.2553 38.7424 38.1566 38.8367L38.1552 38.8379L38.1538 38.8392C38.1025 38.8838 38.0548 38.9447 38.0143 38.999C37.9535 39.0803 37.8939 39.163 37.8359 39.2468C37.7724 39.3383 37.7142 39.4338 37.6603 39.5312C37.6093 39.6239 37.5649 39.7208 37.5311 39.8213L37.5061 39.8959L37.2948 39.8255L37.5633 38.1183L37.6451 38.1361C37.7585 38.1609 37.8728 38.1832 37.9879 38.2007C38.1338 38.2232 38.2919 38.2288 38.4392 38.233C38.6242 38.238 38.8093 38.2419 38.9945 38.2452C39.1521 38.248 39.3096 38.2491 39.4672 38.2491H41.0197C41.1772 38.2491 41.3345 38.2483 41.4921 38.2452C41.6505 38.2425 41.8086 38.2394 41.9667 38.2369C42.1525 38.2338 42.3378 38.233 42.5212 38.233C42.6632 38.2285 42.8132 38.2185 42.9528 38.1893C43.0729 38.1642 43.1919 38.1328 43.3092 38.0969L43.3955 38.0707L43.6825 39.8257L43.477 39.8939L43.4482 39.8285C43.4029 39.7258 43.3514 39.6256 43.2964 39.5279C43.2401 39.4277 43.1802 39.3292 43.1161 39.2337C43.0579 39.1471 42.9977 39.0619 42.9347 38.9787C42.8928 38.9233 42.8432 38.8607 42.7905 38.815L42.7891 38.8136L42.7877 38.8122C42.6915 38.7201 42.58 38.6486 42.4504 38.6141C42.294 38.5723 42.119 38.5592 41.9597 38.555C41.869 38.555 41.7781 38.5542 41.6874 38.5509C41.6122 38.5484 41.5367 38.5467 41.4613 38.5467H41.0003C40.9997 38.7065 40.9981 38.8665 40.9961 39.0263C40.9931 39.2721 40.9922 39.5176 40.9922 39.7634V42.9698C40.9922 43.1201 40.9956 43.2707 41.0044 43.4204C41.0086 43.495 41.0216 43.6233 41.0669 43.6857L41.0682 43.6879C41.1426 43.7976 41.2458 43.8658 41.3725 43.9028C41.5029 43.9409 41.6355 43.9749 41.7692 43.9991L41.8341 44.0105V44.2379H39.0209V44.0064L39.0908 43.9983C39.2245 43.9833 39.3568 43.9565 39.4861 43.919C39.6228 43.8792 39.7401 43.7773 39.8331 43.6721L39.8347 43.6704L39.8361 43.6687C39.8575 43.6473 39.8702 43.6014 39.8763 43.5727C39.8908 43.5053 39.9005 43.4366 39.9077 43.3681C39.9163 43.2843 39.921 43.2 39.9238 43.1156C39.9263 43.0263 39.9279 42.9366 39.9279 42.8473C39.9279 42.7457 39.9293 42.6438 39.9318 42.5422C39.9351 42.403 39.9376 42.2636 39.9401 42.1241C39.9426 41.966 39.9443 41.8082 39.9443 41.6501V38.547V38.5464ZM47.0461 41.9744H44.9801C44.9086 42.1564 44.8362 42.3385 44.7627 42.5199C44.6858 42.7095 44.6084 42.8988 44.5341 43.0889C44.4753 43.2395 44.3679 43.5209 44.3679 43.6835C44.3679 43.7302 44.3796 43.7711 44.4118 43.8057C44.4514 43.848 44.5011 43.8789 44.5538 43.9023C44.6184 43.9309 44.6867 43.9504 44.756 43.9624C44.8303 43.9752 44.9047 43.9874 44.9793 43.9988L45.0461 44.0091V44.2382H43.148V43.9986L43.2179 43.9905C43.3333 43.9771 43.4493 43.9465 43.55 43.8867C43.5832 43.8669 43.6795 43.811 43.7042 43.7828L43.7067 43.7792L43.7103 43.7759C43.7341 43.7517 43.7574 43.7177 43.7771 43.6899C43.8157 43.6345 43.8517 43.5769 43.887 43.5195C44.006 43.3252 44.1078 43.1045 44.201 42.8968C44.3313 42.606 44.4578 42.3131 44.5846 42.0206C44.7305 41.6829 44.8761 41.3456 45.022 41.0079C45.1724 40.6594 45.3205 40.3095 45.4667 39.9593C45.6001 39.6398 45.7346 39.3208 45.8702 39.0026L45.7698 38.7814L45.8425 38.7488C45.9313 38.7093 46.0153 38.6608 46.0927 38.6021C46.1634 38.5484 46.2306 38.4891 46.2905 38.4231C46.3421 38.3666 46.3914 38.307 46.4347 38.2436C46.4661 38.1974 46.4977 38.15 46.5251 38.1016L46.5476 38.0615H46.7135L46.7326 38.1127C46.8929 38.5434 47.0535 38.974 47.2147 39.404C47.3614 39.7962 47.5079 40.1884 47.6524 40.5812C47.7869 40.9461 47.9212 41.3113 48.0566 41.6762C48.1861 42.025 48.317 42.3732 48.4488 42.7215L48.4493 42.7229C48.4987 42.8626 48.5514 43.0037 48.6138 43.1382C48.6726 43.2651 48.7314 43.3926 48.7886 43.5178C48.8055 43.5515 48.8346 43.5913 48.8565 43.6222C48.8962 43.679 48.9453 43.7305 48.996 43.777C49.0584 43.8343 49.1331 43.8797 49.2096 43.9159C49.3017 43.9596 49.4049 43.978 49.5061 43.9824L49.5813 43.9858V44.2385H47.0377V43.9983H47.1165C47.1454 43.9983 47.1928 43.9885 47.2216 43.9833C47.2832 43.9727 47.3437 43.9537 47.4019 43.9304C47.4599 43.9073 47.5118 43.8744 47.5567 43.8313C47.5944 43.7954 47.6097 43.7522 47.6097 43.7004C47.6097 43.6361 47.5839 43.5407 47.5675 43.4789C47.5315 43.3428 47.4874 43.2072 47.4422 43.0736C47.3817 42.8943 47.3187 42.7159 47.2546 42.5378C47.187 42.3496 47.1173 42.1617 47.0461 41.9749V41.9744ZM46.043 39.3926C46.0203 39.4469 45.9978 39.5012 45.9759 39.5555C45.8996 39.7422 45.8214 39.9282 45.7426 40.1138C45.6383 40.3599 45.5368 40.6071 45.4367 40.8551C45.3305 41.1184 45.2237 41.3812 45.1169 41.6442H46.9204C46.8408 41.4338 46.7604 41.2236 46.6791 41.0138C46.5873 40.7772 46.4952 40.5408 46.4017 40.3051C46.3193 40.0977 46.2378 39.8898 46.1565 39.6816C46.1191 39.5852 46.0813 39.4887 46.0428 39.3926H46.043ZM51.7876 43.755C51.8067 43.7764 51.8605 43.8004 51.8847 43.8104C51.9554 43.8402 52.0325 43.8602 52.1077 43.8758C52.2056 43.8961 52.3044 43.9114 52.4037 43.924C52.5091 43.9373 52.6147 43.9437 52.7207 43.9437C52.7895 43.9437 52.8583 43.9421 52.9271 43.9398C53.0308 43.9368 53.1348 43.9306 53.2383 43.9234C53.354 43.9153 53.4696 43.9028 53.5847 43.8872C53.6888 43.873 53.7917 43.8522 53.8929 43.8238C54.0732 43.7728 54.2577 43.7024 54.4133 43.5963C54.547 43.5053 54.6668 43.3976 54.7686 43.2715C54.8685 43.1482 54.9522 43.0129 55.0199 42.8693C55.0923 42.7159 55.1594 42.56 55.2221 42.4022L55.2487 42.3348L55.467 42.4008L55.1408 44.2246H49.7497V43.9961L49.8162 43.9855C49.9491 43.9641 50.0795 43.9293 50.206 43.8825C50.3122 43.8435 50.4132 43.7862 50.4867 43.7018C50.5125 43.6707 50.5299 43.6231 50.5419 43.5849C50.5621 43.5187 50.5752 43.4491 50.5843 43.3803C50.5957 43.2957 50.6048 43.2105 50.6126 43.1254C50.6204 43.0394 50.6243 42.9528 50.6243 42.8662C50.6243 42.7618 50.6262 42.6572 50.6284 42.5528C50.6315 42.4094 50.6342 42.2658 50.6365 42.1227C50.6392 41.9632 50.6403 41.8037 50.6403 41.6442V39.2907C50.6403 39.2014 50.6373 39.112 50.6287 39.0232C50.6218 38.9514 50.6112 38.8793 50.5938 38.8095C50.5829 38.766 50.5652 38.7201 50.5363 38.6853C50.4628 38.5968 50.3688 38.5361 50.262 38.4952C50.138 38.4476 50.0088 38.417 49.8767 38.4014L49.8068 38.3933V38.162H52.5712V38.3908L52.5041 38.4011C52.4211 38.4136 52.3382 38.4309 52.2561 38.4493C52.1659 38.4693 52.0802 38.5019 51.9995 38.5475C51.9188 38.5932 51.8536 38.6569 51.8009 38.7332C51.7382 38.8237 51.7166 38.9389 51.713 39.0469C51.7074 39.2214 51.7038 39.3962 51.7008 39.5708C51.698 39.7266 51.6949 39.8825 51.6922 40.0384C51.6891 40.1965 51.6883 40.3543 51.6883 40.5124V42.005C51.6883 42.1506 51.6894 42.2964 51.6922 42.4423C51.6955 42.611 51.6963 42.7796 51.6963 42.9458C51.7016 43.112 51.7085 43.2782 51.7169 43.4441C51.7219 43.5387 51.7365 43.6712 51.7879 43.7544L51.7876 43.755ZM28.418 51.1593H25.3474V52.8433C25.3474 52.9956 25.3499 53.1476 25.3558 53.2998C25.3585 53.3752 25.3691 53.5044 25.4146 53.5687C25.4762 53.6553 25.5605 53.7146 25.6578 53.7546C25.763 53.7978 25.8734 53.8284 25.9865 53.8393L26.0581 53.8459V54.0789H23.4901V53.8504L23.5567 53.8398C23.6854 53.8192 23.8108 53.7842 23.9311 53.734C24.0238 53.6956 24.1198 53.6414 24.1863 53.5645C24.2044 53.5403 24.2171 53.4908 24.2232 53.4624C24.2379 53.3939 24.2476 53.3235 24.2546 53.2539C24.2634 53.1665 24.2695 53.0785 24.2745 52.9906C24.2795 52.9004 24.2829 52.8105 24.2829 52.7203C24.2829 52.6159 24.2843 52.5115 24.2867 52.4071C24.2898 52.2638 24.2926 52.1204 24.2951 51.9771C24.2978 51.8173 24.2992 51.6578 24.2992 51.4983V49.1284C24.2992 49.0393 24.2959 48.9502 24.287 48.8614C24.2801 48.7882 24.2696 48.7145 24.2524 48.6429C24.2418 48.5992 24.2246 48.5502 24.1952 48.5152C24.1278 48.4339 24.0457 48.3746 23.9464 48.3378C23.8302 48.2953 23.707 48.2702 23.5844 48.2557L23.5148 48.2477V48.0161H26.1075V48.2457L26.0401 48.2555C25.9602 48.2669 25.8809 48.2838 25.8024 48.3033C25.7266 48.322 25.6551 48.3523 25.5896 48.3952C25.5244 48.4378 25.4739 48.496 25.434 48.5625C25.3852 48.644 25.3669 48.742 25.3638 48.8358C25.3569 49.0415 25.3541 49.2475 25.3513 49.4535C25.3488 49.6648 25.3472 49.8763 25.3472 50.0879V50.8372H28.4178V49.5955C28.4178 49.4351 28.4142 49.2745 28.4097 49.1161C28.4042 49.0084 28.397 48.9012 28.3892 48.7938C28.3834 48.7128 28.3662 48.6259 28.3237 48.5558C28.2536 48.4506 28.1587 48.3501 28.0339 48.3147C27.9168 48.2816 27.797 48.2613 27.6758 48.2557L27.6006 48.2524V48.0155H30.218V48.2465L30.1492 48.2552C30.0238 48.271 29.9031 48.3064 29.7883 48.359C29.6851 48.4063 29.6016 48.4759 29.5462 48.5758C29.5248 48.6145 29.5129 48.6663 29.5062 48.7097C29.4946 48.7835 29.4873 48.8575 29.4826 48.9319C29.4771 49.0162 29.4749 49.1005 29.4749 49.1852V51.8668C29.4749 52.0249 29.476 52.1831 29.4787 52.3409C29.4821 52.5218 29.4829 52.703 29.4829 52.8837C29.4829 53.0281 29.4865 53.1729 29.4951 53.3174C29.4987 53.3783 29.5093 53.5016 29.5434 53.554C29.6044 53.6478 29.6857 53.7143 29.7905 53.7527C29.9112 53.7967 30.0377 53.8237 30.165 53.8384L30.2349 53.8462V54.0778H27.5687V53.8437L27.6411 53.8379C27.8023 53.8248 27.9737 53.7961 28.1235 53.7329C28.1995 53.7009 28.3115 53.645 28.3565 53.5718L28.3576 53.5704C28.3653 53.5565 28.3717 53.5178 28.3745 53.5016C28.3839 53.4471 28.3895 53.3914 28.3942 53.3363C28.4 53.2689 28.4039 53.2018 28.4064 53.1345C28.4092 53.0671 28.4106 53 28.4106 52.9327V52.9304C28.4161 52.7453 28.4189 52.5602 28.4189 52.3751V51.1584L28.418 51.1593ZM36.7572 52.2521C36.5933 52.6259 36.3655 52.9597 36.0737 53.2444C35.7828 53.5281 35.4446 53.7432 35.0674 53.8924C34.6777 54.0466 34.2683 54.1196 33.8494 54.1196C33.435 54.1196 33.0303 54.0478 32.6439 53.8966C32.2717 53.751 31.9352 53.5417 31.6459 53.2653C31.3547 52.9872 31.1311 52.6576 30.9702 52.2883C30.7974 51.8922 30.7225 51.4702 30.7225 51.0387C30.7225 50.5909 30.798 50.1488 30.9827 49.7391C31.1505 49.3669 31.3821 49.036 31.6842 48.7618C31.9854 48.4884 32.3341 48.2864 32.7152 48.1477C33.1146 48.0024 33.5313 47.934 33.9557 47.934C34.3953 47.934 34.8305 48.0066 35.2341 48.1864C35.5977 48.349 35.9237 48.5722 36.1955 48.8651C36.461 49.1509 36.6618 49.4811 36.7996 49.8465C36.9403 50.219 37.0091 50.6076 37.0091 51.0059C37.0091 51.4368 36.9311 51.8565 36.7575 52.2518L36.7572 52.2521ZM35.7137 50.025C35.6346 49.7071 35.512 49.4034 35.339 49.125C35.1778 48.8662 34.9734 48.6463 34.7207 48.4762C34.4616 48.3022 34.1673 48.2312 33.8575 48.2312C33.544 48.2312 33.2447 48.3017 32.9818 48.4767C32.7294 48.6443 32.5258 48.8609 32.3682 49.1203C32.1979 49.4006 32.0825 49.7082 32.0098 50.0277C31.9324 50.3679 31.8933 50.7147 31.8933 51.0635C31.8933 51.4195 31.9347 51.7733 32.022 52.1185C32.1014 52.4319 32.222 52.7336 32.3993 53.0048C32.5618 53.2528 32.7676 53.4576 33.0203 53.6124C33.2827 53.773 33.5765 53.8384 33.8819 53.8384C34.1889 53.8384 34.4774 53.7655 34.732 53.5899C34.9817 53.4173 35.1845 53.1965 35.3431 52.9371C35.5151 52.6557 35.6355 52.3487 35.714 52.0286C35.7955 51.6965 35.8382 51.3569 35.8382 51.0148C35.8382 50.6808 35.795 50.349 35.714 50.025H35.7137ZM43.1522 48.8684C43.0374 49.127 42.9228 49.3856 42.8085 49.6442C42.6621 49.976 42.5131 50.3069 42.3628 50.6371C42.213 50.9655 42.0651 51.2951 41.9181 51.6249C41.7531 51.9952 41.5883 52.3657 41.4238 52.7361L41.423 52.7378L41.4225 52.7392C41.3814 52.8213 41.3453 52.9082 41.3098 52.9925C41.2602 53.1119 41.2111 53.2319 41.1634 53.3521C41.1182 53.4654 41.0718 53.5784 41.0239 53.6906C40.9972 53.7524 40.9656 53.8212 40.9442 53.8852L40.9265 53.9392H40.7689L40.7484 53.8916C40.5753 53.4899 40.402 53.088 40.2294 52.686C40.0638 52.3016 39.8969 51.9175 39.7274 51.5348C39.574 51.189 39.4212 50.8436 39.2697 50.4973C39.1438 50.2098 39.0162 49.9228 38.8861 49.6372C38.7907 49.4271 38.6955 49.2163 38.6037 49.0045C38.6034 49.004 38.6032 49.0031 38.6029 49.0026C38.6023 49.1963 38.6015 49.3906 38.5996 49.5843C38.5971 49.8577 38.5937 50.1313 38.591 50.4046C38.5882 50.69 38.5874 50.9755 38.5874 51.2609V52.3108C38.5874 52.5307 38.5923 52.7528 38.6115 52.9719C38.6245 53.1233 38.6561 53.282 38.7255 53.4184C38.786 53.5367 38.8756 53.6249 38.9915 53.689C39.1446 53.7736 39.3443 53.8156 39.5157 53.8395L39.5837 53.849V54.0789H37.2934V53.8532L37.3569 53.8404C37.5064 53.8103 37.6659 53.763 37.7968 53.6823C37.9083 53.6135 37.9926 53.5194 38.0548 53.4042C38.1311 53.2628 38.1752 53.0988 38.2018 52.941C38.2404 52.713 38.2534 52.4742 38.2578 52.2435V52.2412C38.2711 51.9648 38.2781 51.6879 38.2828 51.4112C38.2886 51.0685 38.2906 50.7259 38.2906 50.3832V49.35C38.2906 49.2169 38.2872 49.0838 38.2828 48.9511C38.2786 48.8375 38.2578 48.715 38.1965 48.6173C38.1469 48.538 38.0853 48.4676 38.0071 48.4155C37.9336 48.3665 37.854 48.3298 37.7685 48.307C37.6931 48.2866 37.616 48.268 37.5389 48.2552L37.4731 48.244V48.0161H39.344L41.2477 52.364C41.4599 51.9019 41.6696 51.4387 41.8762 50.9742C42.0829 50.5101 42.289 50.0456 42.4934 49.5804C42.6449 49.2358 42.7955 48.8909 42.9425 48.5441C42.9885 48.4355 43.0346 48.3264 43.0798 48.2176C43.1003 48.168 43.1222 48.1177 43.1411 48.0673L43.1602 48.0161H45.0345V48.2543L44.9577 48.2563C44.804 48.2605 44.619 48.2855 44.4919 48.3804C44.3957 48.452 44.3189 48.5413 44.2778 48.6554C44.2356 48.7726 44.224 48.9438 44.2171 49.0674C44.2062 49.2606 44.1971 49.4541 44.1926 49.6475C44.1865 49.9011 44.184 50.1547 44.184 50.4083V52.04C44.184 52.3453 44.1874 52.6512 44.1926 52.9583C44.1926 53.0604 44.1993 53.1626 44.2123 53.2639C44.2215 53.3354 44.2379 53.4223 44.2728 53.486L44.2742 53.4883L44.2736 53.4877C44.285 53.5064 44.31 53.5331 44.3247 53.5501C44.3635 53.5949 44.4137 53.6347 44.462 53.6692C44.5299 53.7173 44.6098 53.7535 44.688 53.7819C44.7898 53.8187 44.9 53.8348 45.0076 53.839L45.0833 53.842V54.0792H42.1228V53.8343L42.198 53.8309C42.3875 53.8223 42.5844 53.7864 42.7519 53.6934C42.8637 53.6316 42.9816 53.5442 43.0374 53.4254C43.0726 53.3505 43.0917 53.262 43.1042 53.1807C43.12 53.0757 43.1308 52.9705 43.1361 52.8661C43.1464 52.5226 43.1525 52.1789 43.1525 51.8351V48.869L43.1522 48.8684ZM47.4377 48.3189C47.4336 48.3646 47.4313 48.4111 47.4291 48.4559C47.4233 48.5686 47.4194 48.6816 47.4161 48.7944C47.4064 49.1103 47.4039 49.4268 47.4039 49.743V50.268C47.4039 50.3832 47.4044 50.4987 47.408 50.614C47.4103 50.6844 47.4122 50.7554 47.4122 50.8258V50.8369H47.4968C47.5894 50.8369 47.6824 50.8336 47.7747 50.8291C47.8804 50.8238 47.9861 50.8163 48.0918 50.8085C48.1758 50.8021 48.2629 50.7927 48.3453 50.7735C48.4776 50.7426 48.6141 50.6975 48.7309 50.6268C48.8249 50.57 48.9084 50.499 48.9733 50.4102C49.0404 50.3183 49.0898 50.2156 49.1258 50.1076C49.17 49.9751 49.2046 49.8385 49.234 49.7018L49.2473 49.6394H49.4878V52.3807H49.2493L49.2343 52.3208C49.1888 52.1394 49.1209 51.9634 49.0393 51.795C48.9736 51.6589 48.8859 51.5061 48.7752 51.4006C48.6895 51.3257 48.5897 51.2689 48.4845 51.2269C48.3564 51.1757 48.2166 51.1515 48.0796 51.1423C48.0119 51.1378 47.9442 51.1337 47.8765 51.13C47.8233 51.1275 47.77 51.1259 47.7168 51.1259H47.4114C47.4039 51.211 47.4036 51.3004 47.4036 51.3831V52.3676C47.4036 52.4497 47.4047 52.5321 47.4078 52.6145C47.4103 52.6824 47.4119 52.7503 47.4119 52.816C47.4169 52.98 47.4261 53.1439 47.4405 53.3073C47.4491 53.4039 47.4685 53.5367 47.5223 53.6199C47.572 53.6973 47.7387 53.7346 47.8213 53.7491C48.0161 53.7833 48.2147 53.797 48.4121 53.797C48.5298 53.797 48.6474 53.7936 48.765 53.7892C48.9142 53.7836 49.0634 53.7683 49.2116 53.7485C49.3699 53.7279 49.5258 53.6898 49.6728 53.6269C49.8204 53.564 49.9555 53.476 50.0781 53.3727C50.2212 53.2522 50.3488 53.1116 50.4625 52.963C50.6062 52.7754 50.7347 52.573 50.8531 52.3687L50.8836 52.3161L51.1077 52.3773L50.6636 54.0781H45.523V53.8496L45.5893 53.839C45.7132 53.8192 45.8353 53.7861 45.9512 53.7377C46.0519 53.6956 46.1407 53.6358 46.2117 53.5548C46.2361 53.5256 46.2516 53.4782 46.2613 53.4421C46.2794 53.373 46.2927 53.302 46.3046 53.2316C46.3185 53.1487 46.3271 53.0654 46.3324 52.9814C46.3376 52.8945 46.3407 52.8071 46.3407 52.72C46.3407 52.6156 46.3423 52.5112 46.3446 52.4068C46.3479 52.2635 46.3507 52.1201 46.3532 51.9768C46.3557 51.817 46.3568 51.6575 46.3568 51.498V49.4234C46.3568 49.3232 46.3557 49.2225 46.3532 49.1223C46.3509 49.0251 46.3454 48.9282 46.3371 48.8316C46.3301 48.7523 46.3185 48.6719 46.2982 48.5948C46.2883 48.5561 46.2697 48.4996 46.2411 48.4706L46.2397 48.469C46.1781 48.403 46.1038 48.3465 46.0153 48.3231C45.901 48.293 45.7812 48.2727 45.6644 48.2549L45.5973 48.2449V48.0155H50.2398L50.8437 49.4852L50.6395 49.5882L50.5998 49.5384C50.2784 49.1362 49.8515 48.6761 49.3858 48.4453C49.2593 48.3857 49.0324 48.3554 48.8942 48.3373C48.5963 48.2983 48.2887 48.2889 47.9889 48.2889C47.8721 48.2889 47.755 48.2933 47.6385 48.3011C47.5753 48.3053 47.5057 48.3095 47.4399 48.3189H47.4377Z" fill="url(#paint0_linear_206_12)"/>
<path fill-rule="evenodd" clip-rule="evenodd" d="M47.2725 81.7911C47.3743 81.7742 47.4803 81.7469 47.5618 81.7241C47.8606 81.6408 48.1543 81.5195 48.4309 81.3795C49.3232 80.9288 50.1065 80.2516 50.7478 79.488C52.1619 77.8043 53.2165 75.76 54.0226 73.7216C54.6381 72.1653 55.1313 70.5545 55.5365 68.9308C55.896 67.4906 56.1881 66.0315 56.423 64.5657C56.5922 63.5085 56.7328 62.4449 56.8394 61.3793C56.881 60.9635 56.9204 60.542 56.9439 60.1248L57.0394 58.4458L57.3877 60.0905C58.0446 63.1878 58.2077 66.4064 57.6443 69.5318C57.2141 71.9187 56.3745 74.1923 55.1354 76.275C54.2295 77.7979 53.1166 79.2094 51.8435 80.4403C51.4221 80.8475 50.9817 81.2375 50.5223 81.601C50.271 81.7995 50.0117 81.9943 49.7451 82.1719C49.0331 82.6463 47.9027 83.2951 47.0326 83.2728C46.7882 83.2667 46.5511 83.2074 46.3486 83.0663C46.2934 83.0276 46.2418 82.9842 46.1946 82.936C45.7669 82.5001 45.7952 81.7441 45.8465 81.1813C45.8914 80.69 45.9755 80.1953 46.0643 79.7099C46.1871 79.0382 46.3253 78.3688 46.4629 77.7002C46.9829 75.1752 47.4833 72.6505 47.6811 70.0752C47.9113 67.0817 47.7652 63.5992 46.1283 60.9846C45.2235 59.5394 43.9601 58.5145 42.3981 57.8512C41.3335 57.3991 40.1808 57.339 39.0524 57.5411C38.334 57.6697 37.5878 57.9113 36.9318 58.2364C35.6514 58.8708 34.6359 59.7899 33.9014 61.02C31.9251 64.3282 32.4014 69.17 32.7533 72.8618C32.846 73.8324 32.9445 74.8105 32.9838 75.7845C33.0135 76.5227 33.0163 77.3489 32.854 78.072C32.8377 78.145 32.8213 78.2179 32.8047 78.2908C32.6624 78.9205 32.5112 79.5752 32.2704 80.1747C32.0602 80.6986 31.7567 81.2314 31.2669 81.5376C31.1129 81.6339 30.9462 81.7037 30.7698 81.7469C30.1707 81.8922 29.5668 81.6818 29.0595 81.365C28.454 80.9873 27.9061 80.4297 27.4471 79.8869C26.8463 79.1766 26.3137 78.3902 25.8335 77.5938C25.2744 76.6661 24.7737 75.6982 24.3218 74.7137C23.8375 73.659 23.4065 72.5773 23.0315 71.4789C22.6681 70.415 22.3555 69.3306 22.1106 68.233C21.7047 66.4148 21.4102 64.5595 21.191 62.7096C21.1195 62.105 21.056 61.499 21.0024 60.8928C20.9819 60.6573 20.9611 60.4204 20.9464 60.1844C20.9039 59.5194 20.8765 58.8541 20.851 58.1883C20.816 57.2881 20.7866 56.3781 20.6587 55.4857C20.5431 54.6763 20.3445 53.9125 20.0524 53.1489C19.7611 52.3871 19.4277 51.6892 18.9784 51.0084C18.645 50.5029 18.268 50.0238 17.8966 49.5462C17.7485 49.3555 17.6004 49.1645 17.4533 48.9733C15.4326 46.3409 13.6951 43.252 12.9448 39.9922C12.3423 37.3756 12.382 34.6104 13.575 32.1612C13.8915 31.5112 14.2815 30.9019 14.7375 30.3416C15.1994 29.7743 15.7228 29.2627 16.3008 28.8154C17.3399 28.0115 18.5215 27.4406 19.7806 27.0781C21.1475 26.6848 22.5785 26.5426 23.997 26.5804C27.4124 26.6712 30.8597 27.7927 33.9067 29.2914L34.0906 29.3818L33.9455 29.7659L33.748 29.7114C33.4695 29.634 33.1863 29.5653 32.9051 29.4984C32.1833 29.3267 31.456 29.1753 30.7263 29.0408C28.5768 28.6456 26.3445 28.3842 24.1579 28.392C21.3769 28.4017 17.6858 28.8671 15.8759 31.2646C15.5591 31.6841 15.2815 32.1317 15.0465 32.6021C13.9473 34.8045 13.8851 37.3088 14.4116 39.6776C15.0898 42.7278 16.7261 45.6205 18.6122 48.0776C18.7573 48.2668 18.9035 48.455 19.0499 48.6432C19.4128 49.11 19.7781 49.5768 20.1101 50.0661C20.6615 50.8789 21.0673 51.7056 21.4182 52.6234C21.7644 53.5286 21.9957 54.4285 22.1241 55.3891C22.2456 56.2968 22.277 57.2176 22.3128 58.132C22.338 58.7856 22.3652 59.4386 22.4068 60.0917C22.4209 60.3194 22.4409 60.5482 22.4612 60.7753C22.513 61.3657 22.5749 61.955 22.6448 62.5434C22.8581 64.3416 23.1443 66.1453 23.5388 67.9126C23.8525 69.3183 24.2769 70.7037 24.7867 72.0498C25.2602 73.2999 25.8122 74.5289 26.4441 75.7068C26.9653 76.6783 27.555 77.6473 28.2287 78.5208C28.6564 79.0752 29.2342 79.745 29.8325 80.1185C29.9693 80.204 30.2561 80.3607 30.4261 80.3198C30.6017 80.2772 30.7684 79.9501 30.8361 79.8029C31.0064 79.4318 31.1246 79.0048 31.2247 78.609C31.2971 78.324 31.3617 78.037 31.4261 77.7503C31.4896 77.4683 31.5151 77.1696 31.5273 76.8812C31.5429 76.511 31.5351 76.138 31.5187 75.7678C31.4774 74.8462 31.3839 73.9209 31.2963 73.0026C31.1207 71.1605 30.9512 69.3136 30.9681 67.4611C31.0078 63.1138 32.0904 58.9972 36.2727 56.9257C37.0658 56.5326 37.9645 56.2442 38.8338 56.0923C40.2307 55.8479 41.6536 55.9405 42.9687 56.4992C44.9528 57.3418 46.5314 58.6665 47.6051 60.5496C49.1637 63.2833 49.3789 66.6973 49.1762 69.7751C48.9931 72.5548 48.4567 75.2757 47.8961 77.998C47.8509 78.2173 47.8059 78.4364 47.7613 78.6557C47.6195 79.3519 47.4778 80.0542 47.3718 80.7565C47.3405 80.9636 47.2634 81.4774 47.2734 81.792L47.2725 81.7911ZM53.133 56.2963C53.1375 56.2417 53.161 56.1755 53.1788 56.1231C53.2085 56.0352 53.2406 55.9478 53.2725 55.8607C53.3818 55.5628 53.4936 55.2658 53.6037 54.9683C53.9779 53.9587 54.3396 52.9454 54.683 51.925C55.1571 50.5168 55.5978 49.0966 55.995 47.6645C56.4447 46.0433 56.8402 44.4027 57.15 42.7487C57.8626 38.9464 58.5588 32.7828 55.7493 29.6415C54.9224 28.7174 53.936 28.0758 52.6956 27.901C51.4657 27.7273 50.1947 28.0413 49.0436 28.4593C47.6883 28.9512 46.3799 29.6212 45.0801 30.2442C44.0103 30.7566 42.9213 31.2596 41.7946 31.6345C38.4421 32.7496 34.8018 33.3194 31.3112 32.5325L31.1088 32.4872L31.1673 32.0749L31.3742 32.0877C31.6707 32.1061 31.9764 32.1077 32.2735 32.1066C33.0374 32.1041 33.8041 32.064 34.5649 31.9917C36.7812 31.7807 39.064 31.2819 41.0944 30.3513C41.9238 29.9714 42.7346 29.541 43.5443 29.1207C44.446 28.6522 45.3503 28.1882 46.277 27.771C49.9506 26.1159 53.8237 25.2914 56.838 28.6609C58.3397 30.3394 58.89 32.6402 59.0237 34.8381C59.1006 36.1041 59.0443 37.3845 58.9125 38.6449C58.773 39.9763 58.5464 41.3013 58.2654 42.6098C57.894 44.3381 57.4252 46.0486 56.8948 47.7344C56.4283 49.2158 55.9124 50.6821 55.3557 52.1318C54.9573 53.1692 54.5382 54.2 54.0952 55.2191C53.9219 55.6179 53.7457 56.0185 53.5599 56.4118L53.0309 57.5308L53.1327 56.2966L53.133 56.2963ZM70.1303 38.5269L61.6913 37.4817L61.7174 37.0586H70.1444C70.2751 37.0586 70.3777 36.9893 70.4279 36.8687C70.4779 36.7482 70.4548 36.6266 70.3627 36.5336L70.3594 36.53L36.0397 0.310924L36.3587 0L71.4021 35.4995C71.9116 36.0156 72.057 36.763 71.7785 37.4335C71.4989 38.1063 70.8704 38.5266 70.1442 38.5266H70.1303V38.5269ZM1.77277 38.5269C1.02745 38.5269 0.375057 38.0726 0.114042 37.372C-0.146972 36.6714 0.0488578 35.8992 0.611384 35.4085L29.1294 10.5525L29.4245 10.8843L1.57334 36.5155L1.57112 36.5177C1.46821 36.6071 1.43714 36.7301 1.48485 36.8576C1.53284 36.9854 1.63575 37.0586 1.77277 37.0586H10.5807L10.6054 37.4831L1.78581 38.5269H1.7725H1.77277Z" fill="url(#paint1_linear_206_12)"/>
<defs>
<linearGradient id="paint0_linear_206_12" x1="17.7988" y1="47.4044" x2="55.467" y2="47.4044" gradientUnits="userSpaceOnUse">
<stop stop-color="#E8CB6C"/>
<stop offset="1" stop-color="#B39D55"/>
</linearGradient>
<linearGradient id="paint1_linear_206_12" x1="1.30193e-07" y1="48.45" x2="71.9179" y2="48.45" gradientUnits="userSpaceOnUse">
<stop stop-color="#E8CB6C"/>
<stop offset="1" stop-color="#B39D55"/>
</linearGradient>
</defs>
</svg>
