<svg width="106" height="148" viewBox="0 0 106 148" fill="none" xmlns="http://www.w3.org/2000/svg">
<circle cx="55" cy="74" r="40" fill="url(#paint0_linear_220_51)"/>
<path d="M72.6863 61.5195C71.8261 57.9867 69.0058 55.1085 65.498 54.1976C62.9832 53.5445 60.5762 54.596 58.534 56.0984C58.2801 56.2851 57.9902 56.3898 57.7137 56.5265L59.9262 57.9492C60.5059 58.3218 60.6746 59.0952 60.3012 59.6765C59.9527 60.2195 59.1863 60.4468 58.5738 60.0515L50.7215 55.0031C49.1044 54.1554 47.3325 53.7218 45.502 54.1976C41.9942 55.1093 39.1739 57.9867 38.3138 61.5195C37.5224 64.771 38.281 67.8328 39.9935 70.1468C41.8185 72.6132 42.5466 75.5109 42.8286 78.5336C43.1724 82.2179 43.6356 85.8898 44.4645 89.4961L45.0739 92.1484C45.3231 93.232 46.2841 94 47.3919 94C48.4833 94 49.4348 93.2539 49.6997 92.1906L52.3926 81.3765C52.7489 79.9453 54.0301 78.9422 55.4988 78.9422C56.9676 78.9422 58.2488 79.9461 58.6051 81.3765L61.298 92.1906C61.5629 93.2539 62.5144 94 63.6058 94C64.7136 94 65.6746 93.232 65.9238 92.1484L66.5332 89.4961C67.3621 85.8906 67.8246 82.2179 68.1691 78.5336C68.4511 75.5101 69.1792 72.6132 71.0042 70.1468C72.7191 67.8335 73.4777 64.7718 72.6863 61.5195Z" fill="#F9FFFD"/>
<path d="M16.4096 37.4037L14.9889 36.1724L15.657 35.4016C15.8753 35.1497 15.9807 34.9059 15.9733 34.6701C15.9659 34.4343 15.8937 34.1512 15.7567 33.8207L15.3365 32.9008L3.60114 30.3789L5.22535 28.5048L14.2664 30.6237L10.4516 22.4744L12.0103 20.6758L17.6842 33.2151C17.9683 33.8848 18.0846 34.4531 18.0328 34.92C17.9899 35.3767 17.7544 35.852 17.3265 36.3457L16.4096 37.4037Z" fill="#202637"/>
<path d="M31.5363 24.6831C30.8191 25.0667 30.1005 25.2922 29.3806 25.3596C28.6661 25.409 27.9778 25.3235 27.3156 25.103C26.6534 24.8826 26.0507 24.5471 25.5075 24.0968C24.976 23.6401 24.5373 23.0884 24.1915 22.4417C23.7263 21.5716 23.4959 20.6742 23.5004 19.7495C23.5166 18.8185 23.7612 17.9469 24.234 17.1346C24.7186 16.316 25.4489 15.6458 26.4248 15.124C27.3654 14.621 28.2957 14.3957 29.2158 14.448C30.1413 14.4823 30.9542 14.7583 31.6543 15.2759L30.0879 16.8847C29.6687 16.6099 29.2086 16.4704 28.7074 16.4662C28.2117 16.444 27.7346 16.5555 27.276 16.8007C26.7587 17.0773 26.3606 17.4641 26.082 17.9608C25.8088 18.4396 25.6744 18.9801 25.679 19.5824C25.6891 20.1667 25.8576 20.7646 26.1845 21.376C26.4989 21.9639 26.9084 22.4329 27.4131 22.7829C27.9115 23.1212 28.4419 23.3214 29.0043 23.3835C29.5722 23.4276 30.1148 23.3114 30.6322 23.0347C30.9497 22.865 31.2271 22.6486 31.4644 22.3856C31.7073 22.1045 31.8901 21.8102 32.0129 21.5026C32.1294 21.1833 32.1718 20.8809 32.1401 20.5954L34.3467 20.1413C34.392 20.7067 34.3091 21.2727 34.098 21.8392C33.8986 22.3994 33.585 22.9299 33.1573 23.4308C32.7351 23.9136 32.1948 24.331 31.5363 24.6831Z" fill="#202637"/>
<path d="M41.0462 20.4841L40.7808 18.5422C41.111 18.497 41.3974 18.3771 41.64 18.1825C41.8807 17.9747 42.074 17.6656 42.2198 17.2555C42.3638 16.8321 42.4474 16.2622 42.4706 15.5458C42.4938 14.8293 42.4512 13.9268 42.3428 12.8381L42.0536 9.68826L49.4449 8.67815L50.8613 19.0418L48.6815 19.3397L47.5279 10.8982L44.2385 11.3477L44.3911 12.7601C44.5278 14.1544 44.5603 15.3275 44.4885 16.2793C44.4149 17.2179 44.2368 17.9824 43.9541 18.5728C43.6829 19.1481 43.2993 19.5908 42.8034 19.9008C42.3188 20.1958 41.7331 20.3902 41.0462 20.4841Z" fill="#202637"/>
<path d="M58.2946 23.9722C58.0598 23.9224 57.8189 23.8372 57.5719 23.7167C57.3249 23.5961 57.0717 23.4402 56.8124 23.249L57.7004 21.7608C57.8403 21.8722 57.9779 21.9627 58.1131 22.0323C58.2482 22.1018 58.3745 22.1491 58.4919 22.174C58.818 22.2431 59.1405 22.1684 59.4595 21.9498C59.7887 21.747 60.1144 21.4004 60.4364 20.9098L61.0518 19.9363L58.8811 8.86521L61.1311 9.34232L62.5564 18.0473L67.0397 10.5952L69.1136 11.035L62.112 21.8785C61.7602 22.4445 61.3719 22.8937 60.9471 23.2261C60.5352 23.5613 60.105 23.7904 59.6564 23.9134C59.2051 24.0494 58.7511 24.069 58.2946 23.9722Z" fill="#202637"/>
<path d="M72.2654 23.6324L77.4845 14.5674L83.2736 17.9004L82.3056 19.5817L78.4231 17.3464L74.172 24.7301L72.2654 23.6324Z" fill="#202637"/>
<path d="M83.1703 30.8229L91.0598 23.9855L92.5006 25.648L86.8329 30.5599L95.9868 29.6401L97.2967 31.1515L89.3921 38.002L87.9513 36.3395L93.4981 31.5323L84.5195 32.3796L83.1703 30.8229Z" fill="#202637"/>
<path d="M88.7681 109.865L90.1888 111.096L89.5208 111.867C89.3025 112.119 89.197 112.363 89.2044 112.598C89.2118 112.834 89.284 113.117 89.421 113.448L89.8412 114.368L101.577 116.89L99.9524 118.764L90.9113 116.645L94.7261 124.794L93.1674 126.593L87.4935 114.053C87.2094 113.384 87.0932 112.815 87.1449 112.349C87.1879 111.892 87.4233 111.417 87.8512 110.923L88.7681 109.865Z" fill="#202637"/>
<path d="M73.6414 122.585C74.3586 122.202 75.0772 121.976 75.7971 121.909C76.5116 121.86 77.1999 121.945 77.8621 122.166C78.5243 122.386 79.127 122.721 79.6703 123.172C80.2017 123.628 80.6404 124.18 80.9862 124.827C81.4515 125.697 81.6818 126.594 81.6774 127.519C81.6611 128.45 81.4166 129.322 80.9437 130.134C80.4591 130.953 79.7289 131.623 78.753 132.145C77.8123 132.648 76.882 132.873 75.9619 132.821C75.0364 132.786 74.2236 132.51 73.5234 131.993L75.0899 130.384C75.509 130.659 75.9692 130.798 76.4703 130.802C76.966 130.825 77.4432 130.713 77.9017 130.468C78.4191 130.191 78.8171 129.804 79.0958 129.308C79.369 128.829 79.5033 128.288 79.4987 127.686C79.4887 127.102 79.3202 126.504 78.9932 125.893C78.6789 125.305 78.2693 124.836 77.7646 124.486C77.2662 124.147 76.7358 123.947 76.1734 123.885C75.6055 123.841 75.0629 123.957 74.5455 124.234C74.2281 124.404 73.9507 124.62 73.7133 124.883C73.4705 125.164 73.2877 125.458 73.1649 125.766C73.0483 126.085 73.0059 126.388 73.0376 126.673L70.831 127.127C70.7857 126.562 70.8686 125.996 71.0798 125.429C71.2792 124.869 71.5927 124.339 72.0204 123.838C72.4426 123.355 72.983 122.938 73.6414 122.585Z" fill="#202637"/>
<path d="M64.1316 126.784L64.397 128.726C64.0667 128.772 63.7803 128.891 63.5377 129.086C63.297 129.294 63.1037 129.603 62.9579 130.013C62.8139 130.436 62.7303 131.006 62.7071 131.723C62.6839 132.439 62.7265 133.342 62.8349 134.43L63.1241 137.58L55.7328 138.59L54.3165 128.227L56.4962 127.929L57.6498 136.37L60.9393 135.921L60.7866 134.509C60.6499 133.114 60.6174 131.941 60.6892 130.989C60.7628 130.051 60.9409 129.286 61.2236 128.696C61.4949 128.12 61.8784 127.678 62.3744 127.368C62.8589 127.073 63.4446 126.878 64.1316 126.784Z" fill="#202637"/>
<path d="M46.8831 123.296C47.1179 123.346 47.3588 123.431 47.6058 123.552C47.8529 123.672 48.106 123.828 48.3653 124.02L47.4773 125.508C47.3374 125.396 47.1998 125.306 47.0647 125.236C46.9295 125.167 46.8032 125.119 46.6858 125.095C46.3597 125.025 46.0372 125.1 45.7183 125.319C45.389 125.522 45.0634 125.868 44.7413 126.359L44.126 127.332L46.2966 138.403L44.0466 137.926L42.6214 129.221L38.138 136.673L36.0641 136.234L43.0658 125.39C43.4175 124.824 43.8058 124.375 44.2307 124.042C44.6425 123.707 45.0727 123.478 45.5213 123.355C45.9727 123.219 46.4266 123.2 46.8831 123.296Z" fill="#202637"/>
<path d="M32.9123 123.636L27.6933 132.701L21.9042 129.368L22.8721 127.687L26.7546 129.922L31.0057 122.538L32.9123 123.636Z" fill="#202637"/>
<path d="M22.0074 116.446L14.1179 123.283L12.6771 121.621L18.3448 116.709L9.1909 117.628L7.88106 116.117L15.7856 109.267L17.2265 110.929L11.6797 115.736L20.6583 114.889L22.0074 116.446Z" fill="#202637"/>
<defs>
<linearGradient id="paint0_linear_220_51" x1="15" y1="80.5455" x2="95" y2="80.5455" gradientUnits="userSpaceOnUse">
<stop stop-color="#E8CB6C"/>
<stop offset="1" stop-color="#B39D55"/>
</linearGradient>
</defs>
</svg>
