<svg width="36" height="42" viewBox="0 0 36 42" fill="none" xmlns="http://www.w3.org/2000/svg">
<g clip-path="url(#clip0_220_228)">
<path d="M35.6755 7.89543C34.7908 4.18598 31.8899 1.16394 28.2819 0.20746C25.6952 -0.478322 23.2194 0.625819 21.1188 2.20328C20.8577 2.39934 20.5596 2.50926 20.2751 2.65281L22.5508 4.1466C23.1471 4.53789 23.3206 5.35 22.9365 5.96031C22.5781 6.53043 21.7898 6.76914 21.1598 6.35406L13.0831 1.0532C11.4197 0.163163 9.59723 -0.292111 7.71446 0.20746C4.10643 1.16476 1.20553 4.18598 0.320802 7.89543C-0.493216 11.3096 0.287052 14.5244 2.04848 16.9541C3.92562 19.5439 4.67455 22.5864 4.96464 25.7602C5.31821 29.6288 5.79473 33.4843 6.64732 37.2708L7.27411 40.0558C7.53045 41.1936 8.51884 41.9999 9.6583 41.9999C10.7809 41.9999 11.7596 41.2165 12.0321 40.1001L14.802 28.7453C15.1684 27.2425 16.4863 26.1892 17.997 26.1892C19.5077 26.1892 20.8255 27.2433 21.192 28.7453L23.9619 40.1001C24.2343 41.2165 25.213 41.9999 26.3356 41.9999C27.4751 41.9999 28.4635 41.1936 28.7198 40.0558L29.3466 37.2708C30.1992 33.4851 30.6749 29.6288 31.0293 25.7602C31.3194 22.5856 32.0683 19.5439 33.9455 16.9541C35.7093 14.5252 36.4896 11.3104 35.6755 7.89543Z" fill="#202637"/>
</g>
<defs>
<clipPath id="clip0_220_228">
<rect width="36" height="42" fill="white"/>
</clipPath>
</defs>
</svg>
